<?xml version="1.0" encoding="UTF-8"?>
<svg width="1024px" height="1024px" viewBox="0 0 1024 1024" version="1.1" xmlns="http://www.w3.org/2000/svg" xmlns:xlink="http://www.w3.org/1999/xlink">
    <title>jelly copy 3</title>
    <defs>
        <path d="M288,0 L736,0 C895.058008,-5.68434189e-14 1024,128.941992 1024,288 L1024,736 C1024,895.058008 895.058008,1024 736,1024 L288,1024 C128.941992,1024 0,895.058008 0,736 L0,288 C0,128.941992 128.941992,0 288,0 Z" id="path-1"></path>
        <linearGradient x1="10.7517361%" y1="11.9791667%" x2="86.0763889%" y2="97.2222222%" id="linearGradient-2">
            <stop stop-color="#BF8EFF" offset="0%"></stop>
            <stop stop-color="#A265FE" offset="100%"></stop>
        </linearGradient>
        <linearGradient x1="1.84461294%" y1="52.2344671%" x2="99.0350731%" y2="52.2344671%" id="linearGradient-3">
            <stop stop-color="#FFFFFF" stop-opacity="0.6" offset="0%"></stop>
            <stop stop-color="#FFF8FD" stop-opacity="0.38" offset="100%"></stop>
        </linearGradient>
        <linearGradient x1="-4.03717464e-14%" y1="46.875%" x2="98.8636364%" y2="46.875%" id="linearGradient-4">
            <stop stop-color="#8B5CF3" offset="0%"></stop>
            <stop stop-color="#8150EB" offset="100%"></stop>
        </linearGradient>
        <linearGradient x1="0.054501802%" y1="50.2581793%" x2="100%" y2="50.2581793%" id="linearGradient-5">
            <stop stop-color="#FFFFFF" offset="0%"></stop>
            <stop stop-color="#F6F4FF" offset="100%"></stop>
        </linearGradient>
        <linearGradient x1="0.0545277363%" y1="50.2702703%" x2="100%" y2="50.2702703%" id="linearGradient-6">
            <stop stop-color="#FFFFFF" offset="0%"></stop>
            <stop stop-color="#F6F4FF" offset="100%"></stop>
        </linearGradient>
    </defs>
    <g id="jelly-copy-3" stroke="none" fill="none" xlink:href="#path-1" fill-rule="evenodd">
        <use fill="#FFFFFF" xlink:href="#path-1"></use>
        <g id="vectorized_019f02af-54cc-7320-9dca-0abf676585dd" transform="translate(180, 180)" stroke-width="1">
            <g id="Group" transform="translate(33.2, 33.2)">
                <path d="M293.6125,0 C134.875,0 24.9,88.1875 11.4125,226.175 C5.1875,273.9 0,361.05 0,428.4875 C0,467.9125 6.225,505.2625 26.975,534.3125 C49.8,566.475 95.45,595.525 163.925,595.525 L187.7875,597.6 L381.8,597.6 C411.8875,597.6 445.0875,594.4875 462.725,591.375 C501.1125,583.075 530.1625,569.5875 552.9875,548.8375 C570.625,532.2375 583.075,512.525 591.375,483.475 C595.525,465.8375 597.6,448.2 597.6,427.45 C595.525,376.6125 585.15,314.3625 583.075,280.125 C566.475,123.4625 491.775,0 293.6125,0 Z" id="Path" fill="url(#linearGradient-2)"></path>
                <path d="M572.7,220.9875 C560.25,260.4125 527.05,300.875 517.7125,361.05 C504.225,444.05 468.95,512.525 370.3875,534.3125 C311.25,547.8 254.1875,545.725 207.5,555.0625 C190.9,559.2125 162.8875,569.5875 153.55,569.5875 C105.825,567.5125 68.475,549.875 26.975,520.825 C20.75,516.675 15.1090965,513.486916 10.9590965,503.111916 C17.1840965,519.711916 25.5737015,535.96878 35.9487015,545.30628 C57.7362015,569.16878 93.4852159,587.276176 131.872716,593.501176 C147.435216,595.576176 169.1125,597.6 187.7875,597.6 L373.564818,597.6 C403.652318,597.6 438.98514,594.989238 459.73514,591.876738 C521.98514,578.389238 558.175,554.025 577.8875,521.8625 C591.375,496.9625 599.675,468.95 598.6375,423.3 C596.5625,371.425 576.85,246.925 572.7,220.9875 Z" id="Path" fill="#8855FF"></path>
                <path d="M175.3375,53.95 C132.8,71.5875 98.5625,95.45 76.775,140.0625 C54.9875,184.675 95.45,173.2625 103.75,153.55 C133.8375,111.0125 168.075,92.3375 201.275,79.8875 L230.325,68.475 C249,62.25 253.15,46.6875 235.5125,41.5 C216.8375,39.425 190.9,46.6875 175.3375,53.95 L175.3375,53.95 Z" id="Path" fill="url(#linearGradient-3)" opacity="0.5"></path>
                <path d="M184.675,230.325 L195.05,225.1375 L215.8,225.1375 C235.5125,225.1375 257.3,246.925 257.3,266.6375 L257.3,386.9875 C257.3,406.7 240.7,424.3375 216.8375,424.3375 C192.975,424.3375 166,406.7 166,386.9875 L166,257.3 C166,245.8875 175.3375,234.475 184.675,230.325 L184.675,230.325 Z" id="Path" fill="url(#linearGradient-4)"></path>
                <path d="M205.425,217.875 C184.675,217.875 166,234.475 166,256.2625 L166,375.575 C164.9625,394.25 183.6375,409.8125 203.35,409.8125 C224.1,410.85 241.7375,394.25 241.7375,375.575 L241.7375,253.15 C241.7375,236.55 227.2125,217.875 205.425,217.875 Z" id="Path" fill="url(#linearGradient-5)"></path>
                <path d="M352.75,230.325 L365.2,224.1 L386.9875,224.1 C404.625,220.9875 431.6,246.925 431.6,265.6 L431.6,384.9125 C431.6,406.7 413.9625,424.3375 391.1375,424.3375 C370.3875,425.375 346.525,406.7 336.15,386.9875 L336.15,257.3 C336.15,246.925 344.45,235.5125 352.75,230.325 L352.75,230.325 Z" id="Path" fill="#7F51EF"></path>
                <path d="M377.65,217.875 C356.9,217.875 341.3375,232.4 341.3375,253.15 L341.3375,376.6125 C340.3,394.25 358.975,409.8125 377.65,409.8125 C396.325,409.8125 417.075,396.325 417.075,375.575 L417.075,253.15 C417.075,235.5125 400.475,217.875 377.65,217.875 L377.65,217.875 Z" id="Path" fill="url(#linearGradient-6)"></path>
            </g>
        </g>
    </g>
</svg>